<svg xmlns="http://www.w3.org/2000/svg" viewBox="0 0 700 700"><defs><style>.cls-1{fill:#32c88c;}</style></defs><g id="Calque_2" data-name="Calque 2"><path class="cls-1" d="M220.18,630.11V700H0V407.35H220.18v67.54H88.12v42.45H194.89v65H88.12v47.81Z"/><path d="M417.14,700,400.6,642.33H322.21L304.64,700H231.71l90.34-292.65h95L508.81,700ZM337.48,578.44h47.35l-23.68-84.9Z"/><path d="M639.33,477.46V700H554.21V477.46H493.54V407.35H700v70.11Z"/><path d="M700,376.25H583.19L533.05,245H499.83V376.25H394.46V33h179.3q59.34,0,92.17,27.78t32.81,73.31q0,29.67-12.07,52.43t-48.78,40.11ZM499.83,171.55h45q19.86,0,31.94-8.3t12.07-24.39q0-32.94-40.49-33H499.83Z"/><path class="cls-1" d="M312.87,172.21V364.59H261.32q-6.28-21.37-13.83-36-31.94,41.24-94.56,41.24-66.39,0-109.14-46.4T1,197.86q0-77,41.37-129.38t123.1-52.43q61.35,0,98.83,31.18t48.53,88.52l-102.1,10.06q-7.54-53.57-47-53.57-51.81,0-51.81,98.58,0,59.6,16.6,78.59t40.24,19q19.11,0,32.56-11.57t13.71-31.68H158.22V172.21Z"/><path class="cls-1" d="M356,1.69s-5,22.71-44.24,13.19C290.41,9.7,266,17.32,263.81,53.59,273,43,295.9,21.61,323.49,32.15c0,0-27.66-6.95-55.28,28.91,10.2,9.38,36,28.73,59.68,11.18C359.24,49,356,1.69,356,1.69Z"/></g></svg>